<svg width="228" height="44" fill="none" xmlns="http://www.w3.org/2000/svg"><path fill="#0D75FF" fill-opacity=".9" d="M0 11h27v22H0z"/><path fill="#0D75FF" d="M27 0h27v22H27z"/><path fill="#0D75FF" fill-opacity=".8" d="M21 22h27v22H21z"/><path d="M74.68 36.132c-1.32 0-2.316-.228-2.988-.684-.672-.432-1.008-1.164-1.008-2.196 0-.072.06-.108.18-.108.168 0 .468.06.9.18s1.26.18 2.484.18c2.064 0 3.972-.228 5.724-.684 1.752-.48 3.264-1.128 4.536-1.944 1.296-.816 2.292-1.728 2.988-2.736.72-1.032 1.08-2.088 1.08-3.168 0-.984-.276-1.776-.828-2.376-.552-.6-1.284-1.056-2.196-1.368a12.07 12.07 0 0 0-2.916-.612 27.723 27.723 0 0 0-4.536-.144h-1.296c-.552 1.944-1.092 3.9-1.62 5.868a211.48 211.48 0 0 1-1.62 5.724c-.6 0-1.104-.168-1.512-.504-.408-.336-.612-.744-.612-1.224 0-.288.06-.624.18-1.008l.324-1.044c.144-.48.396-1.284.756-2.412s.792-2.448 1.296-3.96a207.698 207.698 0 0 1 1.728-4.752c.624-1.656 1.26-3.276 1.908-4.86a66.676 66.676 0 0 1 1.944-4.212c-1.008.168-1.86.408-2.556.72-.672.312-1.2.6-1.584.864-.384.24-.66.36-.828.36-.168 0-.408-.12-.72-.36-.288-.24-.432-.444-.432-.612 1.2-.504 2.448-.96 3.744-1.368 1.32-.408 2.916-.612 4.788-.612.792 0 1.668.072 2.628.216.96.12 1.872.384 2.736.792.864.384 1.572.96 2.124 1.728.552.744.828 1.74.828 2.988 0 1.176-.252 2.184-.756 3.024a6.722 6.722 0 0 1-1.98 2.052c-.816.528-1.704.948-2.664 1.26-.96.312-1.908.54-2.844.684 1.776.096 3.204.348 4.284.756 1.104.408 1.932.9 2.484 1.476.576.552.96 1.14 1.152 1.764.192.624.288 1.224.288 1.8 0 1.392-.36 2.652-1.08 3.78-.72 1.128-1.668 2.112-2.844 2.952a18.034 18.034 0 0 1-3.852 2.088 21.462 21.462 0 0 1-4.14 1.26c-1.368.288-2.592.432-3.672.432Zm2.34-16.488a26.886 26.886 0 0 0 3.924-.432c1.32-.264 2.52-.672 3.6-1.224 1.08-.552 1.944-1.272 2.592-2.16.672-.888 1.008-1.992 1.008-3.312 0-1.248-.3-2.208-.9-2.88-.576-.672-1.332-1.14-2.268-1.404a10.44 10.44 0 0 0-2.916-.396h-.36c-.096 0-.204.012-.324.036A45.817 45.817 0 0 0 79 13.416a135.621 135.621 0 0 0-1.98 6.228Zm17.366 14.508c-1.032 0-1.764-.324-2.196-.972-.432-.624-.648-1.392-.648-2.304 0-.744.12-1.512.36-2.304.24-.792.552-1.536.936-2.232.408-.696.852-1.26 1.332-1.692.504-.432 1.008-.648 1.512-.648.216 0 .468.06.756.18-.216.192-.48.552-.792 1.08a13.571 13.571 0 0 0-.828 1.764 20.855 20.855 0 0 0-.684 1.944c-.168.648-.252 1.2-.252 1.656 0 .72.12 1.248.36 1.584.24.312.552.468.936.468.504 0 1.104-.264 1.8-.792.696-.552 1.38-1.248 2.052-2.088-.672-.552-1.2-1.272-1.584-2.16a7.493 7.493 0 0 1-.54-2.772c0-.792.132-1.536.396-2.232.288-.696.696-1.248 1.224-1.656.528-.432 1.164-.648 1.908-.648.984 0 1.644.264 1.98.792.336.528.504 1.188.504 1.98 0 .936-.228 1.98-.684 3.132a18.642 18.642 0 0 1-1.728 3.276c.432.24.888.36 1.368.36.552 0 1.224-.18 2.016-.54.792-.384 1.404-1.068 1.836-2.052l.432.36c-.48 1.128-1.164 1.932-2.052 2.412-.864.456-1.692.684-2.484.684-.648 0-1.224-.12-1.728-.36-.816 1.08-1.716 1.98-2.7 2.7-.96.72-1.896 1.08-2.808 1.08Zm5.292-5.292a14.7 14.7 0 0 0 1.476-2.772c.408-.984.612-1.908.612-2.772 0-.696-.108-1.2-.324-1.512-.192-.336-.444-.504-.756-.504-.48 0-.972.348-1.476 1.044-.504.696-.756 1.572-.756 2.628 0 .696.096 1.404.288 2.124.216.696.528 1.284.936 1.764Zm7.857 5.292c-1.032 0-1.764-.324-2.196-.972-.432-.624-.648-1.392-.648-2.304 0-.744.12-1.512.36-2.304.24-.792.552-1.536.936-2.232.408-.696.852-1.26 1.332-1.692.504-.432 1.008-.648 1.512-.648.216 0 .468.06.756.18-.216.192-.48.552-.792 1.08a13.571 13.571 0 0 0-.828 1.764 20.855 20.855 0 0 0-.684 1.944c-.168.648-.252 1.2-.252 1.656 0 .72.12 1.248.36 1.584.24.312.552.468.936.468.504 0 1.104-.264 1.8-.792.696-.552 1.38-1.248 2.052-2.088-.672-.552-1.2-1.272-1.584-2.16a7.493 7.493 0 0 1-.54-2.772c0-.792.132-1.536.396-2.232.288-.696.696-1.248 1.224-1.656.528-.432 1.164-.648 1.908-.648.984 0 1.644.264 1.98.792.336.528.504 1.188.504 1.98 0 .936-.228 1.98-.684 3.132a18.642 18.642 0 0 1-1.728 3.276c.432.24.888.36 1.368.36.552 0 1.224-.18 2.016-.54.792-.384 1.404-1.068 1.836-2.052l.432.36c-.48 1.128-1.164 1.932-2.052 2.412-.864.456-1.692.684-2.484.684-.648 0-1.224-.12-1.728-.36-.816 1.08-1.716 1.98-2.7 2.7-.96.72-1.896 1.08-2.808 1.08Zm5.292-5.292c.6-.888 1.092-1.812 1.476-2.772.408-.984.612-1.908.612-2.772 0-.696-.108-1.2-.324-1.512-.192-.336-.444-.504-.756-.504-.48 0-.972.348-1.476 1.044-.504.696-.756 1.572-.756 2.628 0 .696.096 1.404.288 2.124.216.696.528 1.284.936 1.764Zm16.064 5.508a2.42 2.42 0 0 1-1.728-.684c-.48-.456-.864-1.032-1.152-1.728a13.377 13.377 0 0 1-.612-2.124c-.12-.744-.18-1.392-.18-1.944.264 0 .648-.06 1.152-.18a8.998 8.998 0 0 0 1.548-.612 4.543 4.543 0 0 0 1.332-1.08c.384-.456.576-.984.576-1.584 0-.504-.18-.9-.54-1.188a1.958 1.958 0 0 0-1.26-.432c-.744 0-1.44.264-2.088.792-.648.504-1.236 1.176-1.764 2.016-.504.816-.96 1.692-1.368 2.628a35.551 35.551 0 0 0-1.044 2.664c-.288.84-.528 1.536-.72 2.088-.144.432-.348.72-.612.864a1.52 1.52 0 0 1-.828.252c-.408 0-.708-.168-.9-.504-.168-.336-.276-.756-.324-1.26a35.684 35.684 0 0 1-.036-1.62c0-1.248.204-2.688.612-4.32a44.02 44.02 0 0 1 1.62-5.076 66.706 66.706 0 0 1 2.268-5.148 58.605 58.605 0 0 1 2.448-4.5c.816-1.344 1.572-2.412 2.268-3.204.696-.792 1.26-1.188 1.692-1.188.336 0 .6.228.792.684.216.456.324 1.008.324 1.656 0 .816-.18 1.74-.54 2.772-.36 1.008-.876 2.028-1.548 3.06a16.631 16.631 0 0 1-2.34 2.916 15.038 15.038 0 0 1-2.916 2.34c-.792 1.944-1.392 3.84-1.8 5.688-.384 1.824-.576 3.36-.576 4.608a70.6 70.6 0 0 1 1.368-3.168 27.985 27.985 0 0 1 1.872-3.312c.696-1.056 1.452-1.92 2.268-2.592.816-.672 1.668-1.008 2.556-1.008.888 0 1.644.312 2.268.936.624.624.936 1.38.936 2.268 0 .768-.204 1.428-.612 1.98-.384.528-.864.96-1.44 1.296a7.968 7.968 0 0 1-1.692.72c-.552.144-1.008.216-1.368.216.024.192.096.54.216 1.044s.288 1.032.504 1.584c.24.552.528 1.032.864 1.44.336.384.744.576 1.224.576 1.032 0 1.992-.564 2.88-1.692.888-1.152 1.704-2.544 2.448-4.176l.36.36a12.095 12.095 0 0 1-1.548 3.348c-.696 1.032-1.476 1.872-2.34 2.52-.84.672-1.68 1.008-2.52 1.008Zm-5.256-15.084a15.61 15.61 0 0 0 2.88-3.024c.84-1.128 1.488-2.208 1.944-3.24.456-1.056.684-1.884.684-2.484 0-.216-.036-.324-.108-.324-.24 0-.66.42-1.26 1.26-.576.84-1.236 1.956-1.98 3.348a55.465 55.465 0 0 0-2.16 4.464Zm17.939 16.848a9.45 9.45 0 0 1-3.672-.72 6.36 6.36 0 0 1-2.808-2.124c-.696-.96-1.044-2.16-1.044-3.6 0-1.248.24-2.22.72-2.916.504-.696 1.116-1.188 1.836-1.476.72-.288 1.404-.432 2.052-.432a7.394 7.394 0 0 0-1.476 2.304 6.741 6.741 0 0 0-.504 2.52c0 .888.192 1.716.576 2.484.408.768 1.02 1.38 1.836 1.836.816.48 1.848.72 3.096.72 1.08 0 2.136-.204 3.168-.612 1.032-.384 1.872-.96 2.52-1.728.672-.792 1.008-1.764 1.008-2.916 0-1.032-.264-1.92-.792-2.664-.528-.744-1.212-1.404-2.052-1.98a30.762 30.762 0 0 0-2.628-1.656 35.876 35.876 0 0 1-2.664-1.656 8.592 8.592 0 0 1-2.016-2.052c-.528-.768-.792-1.692-.792-2.772 0-1.008.24-2.064.72-3.168s1.164-2.148 2.052-3.132a10.68 10.68 0 0 1 3.24-2.376c1.272-.624 2.688-.936 4.248-.936 1.416 0 2.4.348 2.952 1.044.552.672.828 1.524.828 2.556 0 .864-.156 1.8-.468 2.808a19.289 19.289 0 0 1-1.08 2.844c-.432.888-.84 1.644-1.224 2.268-.432-.096-.744-.276-.936-.54a1.964 1.964 0 0 1-.252-1.008c0-.504.108-1.08.324-1.728.216-.648.456-1.32.72-2.016.288-.696.54-1.368.756-2.016.216-.672.324-1.272.324-1.8 0-.48-.144-.852-.432-1.116-.288-.288-.816-.432-1.584-.432a6.393 6.393 0 0 0-3.132.792 9.02 9.02 0 0 0-2.52 2.052c-.72.816-1.284 1.68-1.692 2.592-.384.912-.576 1.74-.576 2.484 0 .888.252 1.656.756 2.304.528.624 1.2 1.2 2.016 1.728.816.504 1.68 1.02 2.592 1.548a19.663 19.663 0 0 1 2.628 1.692 7.63 7.63 0 0 1 1.98 2.232c.528.84.792 1.872.792 3.096 0 1.248-.276 2.352-.828 3.312a7.514 7.514 0 0 1-2.232 2.376 10.42 10.42 0 0 1-3.024 1.476 11.323 11.323 0 0 1-3.312.504Zm13.684-1.764c-.456 0-.816-.384-1.08-1.152-.264-.768-.396-1.632-.396-2.592 0-1.152.192-2.52.576-4.104a50.262 50.262 0 0 1 1.512-5.004 64.123 64.123 0 0 1 2.088-5.148 53.349 53.349 0 0 1 2.412-4.572c.816-1.368 1.584-2.46 2.304-3.276.72-.816 1.344-1.224 1.872-1.224.432 0 .732.264.9.792.192.504.288.996.288 1.476 0 .672-.156 1.488-.468 2.448-.288.96-.696 1.992-1.224 3.096a28.85 28.85 0 0 1-1.836 3.204 23.024 23.024 0 0 1-2.268 2.916c-.816.864-1.644 1.548-2.484 2.052-.288.696-.54 1.476-.756 2.34a24.721 24.721 0 0 0-.432 2.556 18.986 18.986 0 0 0-.144 2.196v.684c.024.192.048.372.072.54a36.918 36.918 0 0 1 1.944-4.608c.72-1.416 1.524-2.556 2.412-3.42.912-.864 1.896-1.296 2.952-1.296.984 0 1.68.348 2.088 1.044.432.672.648 1.404.648 2.196 0 .744-.132 1.464-.396 2.16-.24.696-.492 1.368-.756 2.016-.264.648-.396 1.272-.396 1.872 0 .48.096.828.288 1.044.216.216.48.324.792.324.552 0 1.164-.264 1.836-.792.696-.528 1.38-1.224 2.052-2.088a15.795 15.795 0 0 0 1.728-2.88l.468.432a15.47 15.47 0 0 1-1.836 3.204c-.72.936-1.512 1.68-2.376 2.232-.864.552-1.764.828-2.7.828-.816 0-1.44-.216-1.872-.648-.408-.432-.612-.972-.612-1.62 0-.504.096-1.068.288-1.692.192-.624.372-1.26.54-1.908.192-.648.288-1.26.288-1.836 0-.624-.132-1.068-.396-1.332a1.321 1.321 0 0 0-.972-.396c-.6 0-1.14.24-1.62.72-.48.48-.924 1.104-1.332 1.872a36.724 36.724 0 0 0-1.116 2.376c-.336.84-.66 1.644-.972 2.412-.312.744-.624 1.356-.936 1.836-.312.48-.636.72-.972.72Zm2.664-12.492c.672-.528 1.32-1.2 1.944-2.016a24.869 24.869 0 0 0 1.8-2.592 38.889 38.889 0 0 0 1.476-2.736c.432-.888.768-1.692 1.008-2.412s.36-1.26.36-1.62c0-.192-.048-.288-.144-.288-.168 0-.516.336-1.044 1.008-.504.648-1.092 1.524-1.764 2.628a38.323 38.323 0 0 0-1.98 3.744 34.332 34.332 0 0 0-1.656 4.284Zm16.654 12.708c-1.464 0-2.568-.408-3.312-1.224-.721-.792-1.081-1.776-1.081-2.952 0-1.08.264-2.22.793-3.42a14.96 14.96 0 0 1 2.16-3.384c.912-1.056 1.908-1.908 2.988-2.556 1.08-.672 2.148-1.008 3.204-1.008.552 0 1.056.144 1.512.432.48.288.72.876.72 1.764 0 .912-.276 1.776-.828 2.592-.528.792-1.236 1.5-2.124 2.124a12.724 12.724 0 0 1-2.88 1.548 12.056 12.056 0 0 1-3.096.72c-.048.24-.084.468-.108.684-.024.216-.036.42-.036.612 0 .744.192 1.44.575 2.088.409.624 1.165.936 2.269.936 1.032 0 2.052-.288 3.06-.864 1.008-.6 1.944-1.38 2.808-2.34a15.238 15.238 0 0 0 2.196-3.168l.432.324c-.648 1.44-1.476 2.688-2.484 3.744-.984 1.056-2.064 1.872-3.24 2.448-1.152.6-2.328.9-3.528.9Zm-1.764-6.048c.648-.216 1.38-.528 2.196-.936a16.198 16.198 0 0 0 2.34-1.512c.768-.576 1.392-1.212 1.872-1.908.504-.696.756-1.428.756-2.196 0-.264-.048-.468-.144-.612-.096-.144-.3-.216-.612-.216-.576 0-1.188.228-1.836.684-.648.432-1.272 1.008-1.872 1.728-.6.72-1.14 1.512-1.62 2.376-.48.864-.84 1.728-1.08 2.592Zm12.852 5.544c-1.032 0-1.776-.36-2.232-1.08-.432-.696-.648-1.572-.648-2.628 0-1.152.216-2.52.648-4.104a47.367 47.367 0 0 1 1.692-5.004c.72-1.752 1.5-3.456 2.34-5.112.84-1.68 1.68-3.204 2.52-4.572.84-1.368 1.608-2.46 2.304-3.276.72-.816 1.284-1.224 1.692-1.224.264 0 .48.156.648.468.168.288.3.648.396 1.08.096.408.144.78.144 1.116 0 .648-.168 1.5-.504 2.556-.312 1.032-.768 2.196-1.368 3.492a34.41 34.41 0 0 1-2.088 3.888 36.238 36.238 0 0 1-2.628 3.744c-.936 1.2-1.932 2.232-2.988 3.096a29.422 29.422 0 0 0-.36 1.908c-.072.6-.108 1.176-.108 1.728 0 1.848.528 2.772 1.584 2.772.648 0 1.284-.288 1.908-.864.648-.576 1.248-1.296 1.8-2.16.576-.888 1.068-1.8 1.476-2.736l.54.288c-.96 2.04-2.004 3.66-3.132 4.86-1.128 1.176-2.34 1.764-3.636 1.764Zm.252-8.784c.84-.84 1.656-1.8 2.448-2.88a39.391 39.391 0 0 0 2.196-3.42 44.058 44.058 0 0 0 1.836-3.42c.528-1.104.936-2.088 1.224-2.952.288-.888.432-1.572.432-2.052 0-.24-.036-.396-.108-.468-.048-.072-.096-.108-.144-.108-.192 0-.528.312-1.008.936-.456.6-.996 1.416-1.62 2.448a46.18 46.18 0 0 0-1.908 3.528 73.853 73.853 0 0 0-1.872 4.14 47.176 47.176 0 0 0-1.476 4.248Zm8.328 9.36c-2.136 0-3.204-1.188-3.204-3.564 0-1.056.192-2.352.576-3.888.408-1.56.912-3.156 1.512-4.788a8.003 8.003 0 0 0-.684-.108 4.556 4.556 0 0 1-.612-.18v-.648c.192.024.42.048.684.072.264.024.564.048.9.072a53.25 53.25 0 0 1 1.62-3.744 39.65 39.65 0 0 1 1.692-3.24c.576-.96 1.116-1.716 1.62-2.268.528-.576.972-.864 1.332-.864a.69.69 0 0 1 .504.216c.168.12.252.312.252.576 0 .408-.252 1.08-.756 2.016-.504.912-1.128 2.004-1.872 3.276a51.006 51.006 0 0 0-2.16 4.14h1.332c.792 0 1.62-.012 2.484-.036a33.095 33.095 0 0 0 2.664-.18v.648c-2.616.288-4.728.432-6.336.432h-.54a31.77 31.77 0 0 0-1.404 3.924c-.384 1.344-.576 2.652-.576 3.924 0 1.032.156 1.776.468 2.232.312.432.828.648 1.548.648 1.248 0 2.472-.552 3.672-1.656 1.2-1.104 2.256-2.604 3.168-4.5l.468.36a14.977 14.977 0 0 1-2.196 3.636c-.864 1.08-1.824 1.932-2.88 2.556-1.056.624-2.148.936-3.276.936Zm11.093-.072c-1.464 0-2.568-.408-3.312-1.224-.72-.792-1.08-1.776-1.08-2.952 0-1.08.264-2.22.792-3.42a14.96 14.96 0 0 1 2.16-3.384c.912-1.056 1.908-1.908 2.988-2.556 1.08-.672 2.148-1.008 3.204-1.008.552 0 1.056.144 1.512.432.48.288.72.876.72 1.764 0 .912-.276 1.776-.828 2.592-.528.792-1.236 1.5-2.124 2.124a12.724 12.724 0 0 1-2.88 1.548 12.056 12.056 0 0 1-3.096.72c-.048.24-.084.468-.108.684-.024.216-.036.42-.036.612 0 .744.192 1.44.576 2.088.408.624 1.164.936 2.268.936 1.032 0 2.052-.288 3.06-.864 1.008-.6 1.944-1.38 2.808-2.34a15.238 15.238 0 0 0 2.196-3.168l.432.324c-.648 1.44-1.476 2.688-2.484 3.744-.984 1.056-2.064 1.872-3.24 2.448-1.152.6-2.328.9-3.528.9Zm-1.764-6.048c.648-.216 1.38-.528 2.196-.936a16.198 16.198 0 0 0 2.34-1.512c.768-.576 1.392-1.212 1.872-1.908.504-.696.756-1.428.756-2.196 0-.264-.048-.468-.144-.612-.096-.144-.3-.216-.612-.216-.576 0-1.188.228-1.836.684-.648.432-1.272 1.008-1.872 1.728-.6.72-1.14 1.512-1.62 2.376-.48.864-.84 1.728-1.08 2.592Zm16.093 5.4c-.816 0-1.464-.216-1.944-.648-.456-.432-.684-.996-.684-1.692 0-.72.168-1.476.504-2.268.336-.792.66-1.572.972-2.34.336-.792.504-1.5.504-2.124 0-.768-.228-1.332-.684-1.692a13.37 13.37 0 0 0-1.332-1.044 63.602 63.602 0 0 1-1.728 4.032c-.6 1.272-1.092 2.232-1.476 2.88l-.324-.612c.336-.624.768-1.536 1.296-2.736a44.449 44.449 0 0 0 1.62-4.104c-.24-.24-.36-.528-.36-.864 0-.72.204-1.308.612-1.764.408-.456.708-.684.9-.684.264 0 .408.12.432.36.048.216.072.384.072.504s-.072.36-.216.72c-.12.336-.18.54-.18.612 0 .336.18.648.539.936.385.264.817.576 1.297.936.48.336.9.756 1.26 1.26.384.48.576 1.104.576 1.872 0 .72-.156 1.452-.468 2.196a35.34 35.34 0 0 1-.9 2.124c-.288.672-.432 1.26-.432 1.764 0 .432.108.72.324.864.216.144.468.216.756.216.576 0 1.164-.18 1.764-.54a9.394 9.394 0 0 0 1.8-1.368 14.797 14.797 0 0 0 1.548-1.728c.456-.624.792-1.2 1.008-1.728l.468.36c-.456 1.008-1.08 2.004-1.872 2.988-.792.96-1.68 1.752-2.664 2.376-.96.624-1.956.936-2.988.936Z" fill="#000"/></svg>